#!OML:ASF E:\Steps\Project 1\Capture day 1\Session 2\Subject.ASF
:FULLY-SPECIFIED
:DEGREES
356
root 8.84226 16.0496 14.226 -159.204 4.43489 179.083
lowerback -23.2907 0.667254 -4.72984
upperback 1.40858 2.41109 -0.420288
thorax 14.607 0.788255 3.0904
lowerneck -1.91406 -0.971209 -1.44332
upperneck 18.2926 -2.98596 2.93779
head 5.8979 -1.82842 0.949719
rclavicle 4.87022e-015 5.96354e-016
rhumerus -27.1468 -9.04717 -81.1247
rradius 42.5351
rwrist -2.42768
rhand -5.76792 -55.5137
rfingers 7.12502
rthumb 20.0554 -84.4987
lclavicle 4.87022e-015 5.96354e-016
lhumerus -34.7015 8.17818 76.1209
lradius 20.4754
lwrist -7.63643
lhand -20.3492 -14.0203
lfingers 7.12502
lthumb 6.00266 15.8747
rfemur -12.9424 3.95954 24.2508
rtibia 9.89597
rfoot -23.9993 -1.81876
rtoes -43.7012
lfemur -43.9666 -6.77695 -16.4923
ltibia 13.0701
lfoot -2.96701 6.00166
ltoes -33.298
357
root 8.84412 16.0329 14.1029 -159.24 4.57037 179.151
lowerback -23.1336 0.745366 -4.67465
upperback 1.24685 2.5002 -0.4679
thorax 14.3205 0.8523 3.02689
lowerneck -1.78103 -0.984068 -1.23642
upperneck 18.37 -3.00939 2.72911
head 5.89468 -1.84951 0.848455
rclavicle 1.0958e-014 6.06293e-015
rhumerus -27.4167 -8.84261 -81.1471
rradius 42.7518
rwrist -2.67041
rhand -5.28148 -56.0159
rfingers 7.12502
rthumb 20.5229 -84.9511
lclavicle 1.0958e-014 6.06293e-015
lhumerus -34.8026 8.54561 75.7663
lradius 19.8666
lwrist -8.44651
lhand -20.6205 -14.1125
lfingers 7.12502
lthumb 5.7408 15.7898
rfemur -12.5945 4.05632 24.3081
rtibia 10.3065
rfoot -23.7607 -1.73592
rtoes -42.4835
lfemur -43.6177 -6.67084 -16.6761
ltibia 12.4011
lfoot -3.28824 6.14709
ltoes -32.0488
358
root 8.8473 16.0156 13.9773 -159.242 4.67232 179.197
lowerback -23.2676 0.783212 -4.71548
upperback 1.21947 2.57401 -0.478495
thorax 14.3583 0.883446 3.0682
lowerneck -1.82972 -1.0849 -1.32994
upperneck 18.5174 -3.18932 2.85931
head 5.9567 -1.93988 0.892796
rclavicle 1.70458e-014 -1.88845e-015
rhumerus -27.5042 -8.69389 -81.1768
rradius 42.9705
rwrist -2.87855
rhand -5.37111 -55.9393
rfingers 7.12502
rthumb 20.4368 -84.8838
lclavicle 1.70458e-014 -1.88845e-015
lhumerus -34.6312 8.97372 75.5041
lradius 19.1575
lwrist -9.14154
lhand -20.7181 -14.1665
lfingers 7.12502
lthumb 5.64656 15.7382
rfemur -12.2966 4.05532 24.3465
rtibia 10.8044
rfoot -24.6745 -1.56858
rtoes -43.7106
lfemur -43.3055 -6.63029 -16.8687
ltibia 11.9886
lfoot -3.5321 6.20451
ltoes -30.3697
359
root 8.84946 16.0011 13.8488 -159.326 4.69822 179.178
lowerback -23.6864 0.754484 -4.82516
upperback 1.4193 2.59127 -0.474446
thorax 14.8333 0.857595 3.16081
lowerneck -2.08276 -1.14199 -1.47074
upperneck 18.5568 -3.26345 2.98814
head 6.01833 -1.96724 0.94983
rclavicle 1.2101e-014 -1.80894e-014
rhumerus -27.2396 -8.67005 -81.217
rradius 43.1415
rwrist -2.96493
rhand -5.73936 -55.1337
rfingers 7.12502
rthumb 20.0829 -84.1157
lclavicle 1.2101e-014 -1.80894e-014
lhumerus -34.2356 9.27705 75.3952
lradius 18.5878
lwrist -9.59088
lhand -20.5763 -14.1907
lfingers 7.12502
lthumb 5.78345 15.7104
rfemur -11.9526 4.12 24.3245
rtibia 11.3716
rfoot -25.3671 -1.62866
rtoes -44.1517
lfemur -42.9897 -6.62253 -17.1967
ltibia 11.9733
lfoot -3.45238 6.0798
ltoes -30.7732
360
root 8.85129 15.9889 13.7163 -159.442 4.65582 179.094
lowerback -23.6171 0.683831 -4.88508
upperback 1.35674 2.52505 -0.548913
thorax 14.7257 0.834774 3.08286
lowerneck -2.22837 -1.14202 -1.50871
upperneck 18.6658 -3.27419 3.02486
head 6.07929 -1.97207 0.964587
rclavicle -1.37658e-014 1.35174e-014
rhumerus -27.2917 -8.6437 -81.3029
rradius 43.1566
rwrist -2.90025
rhand -4.72184 -57.7183
rfingers 7.12502
rthumb 21.0607 -86.5946
lclavicle -1.37658e-014 1.35174e-014
lhumerus -34.294 9.81383 74.9307
lradius 18.0044
lwrist -10.4876
lhand -20.5415 -14.0819
lfingers 7.12502
lthumb 5.81706 15.8182
rfemur -11.552 4.20943 24.2565
rtibia 11.8408
rfoot -25.6118 -1.79274
rtoes -43.9336
lfemur -42.7002 -6.55329 -17.7111
ltibia 12.3267
lfoot -3.31119 5.73359
ltoes -31.6908
361
root 8.85271 15.9754 13.5831 -159.457 4.65183 179.014
lowerback -23.4439 0.657757 -4.96251
upperback 1.10831 2.52631 -0.656182
thorax 14.3322 0.861622 2.99526
lowerneck -1.74877 -0.88191 -1.13024
upperneck 18.3753 -2.8827 2.74198
head 5.88697 -1.78322 0.842064
rclavicle 2.30093e-014 -1.09332e-014
rhumerus -27.7619 -8.63351 -81.3487
rradius 43.2977
rwrist -2.9767
rhand -5.06072 -56.4915
rfingers 7.12502
rthumb 20.7351 -85.4037
lclavicle 2.30093e-014 -1.09332e-014
lhumerus -34.6221 10.3801 74.3116
lradius 17.4225
lwrist -11.5921
lhand -20.5982 -13.9505
lfingers 7.12502
lthumb 5.7623 15.9511
rfemur -11.2778 4.25628 24.1762
rtibia 12.367
rfoot -25.758 -1.78934
rtoes -43.6263
lfemur -42.499 -6.57552 -18.1463
ltibia 12.8621
lfoot -3.12456 5.42667
ltoes -33.0778
362
root 8.8488 15.9604 13.4499 -159.383 4.71229 178.933
lowerback -23.9325 0.662706 -5.0194
upperback 1.18179 2.60188 -0.751835
thorax 14.6984 0.882626 2.96357
lowerneck -2.08738 -1.05454 -1.125
upperneck 18.8118 -3.21004 2.92956
head 6.09324 -1.9362 0.873852
rclavicle -7.15625e-015 -1.39149e-015
rhumerus -27.8352 -8.68293 -81.3637
rradius 43.5811
rwrist -3.25523
rhand -5.07392 -56.6304
rfingers 7.12502
rthumb 20.7224 -85.5441
lclavicle -7.15625e-015 -1.39149e-015
lhumerus -34.3824 11.036 73.8939
lradius 16.8567
lwrist -12.5431
lhand -20.6292 -13.8285
lfingers 7.12502
lthumb 5.73231 16.0739
rfemur -11.2515 4.21541 24.0542
rtibia 13.2393
rfoot -25.9958 -1.83164
rtoes -43.7884
lfemur -42.3223 -6.90703 -18.3978
ltibia 13.4372
lfoot -2.98314 5.38599
ltoes -33.8457
